<?xml version="1.0" encoding="UTF-8"?>
<svg id="_レイヤー_1" data-name="レイヤー 1" xmlns="http://www.w3.org/2000/svg" viewBox="0 0 256 256">
  <defs>
    <style>
      .cls-1 {
        stroke-width: 3px;
      }

      .cls-1, .cls-2, .cls-3 {
        fill: none;
        stroke: #6c63ff;
        stroke-miterlimit: 10;
      }

      .cls-2 {
        stroke-width: 2px;
      }

      .cls-3 {
        stroke-width: 4px;
      }
    </style>
  </defs>
  <path class="cls-3" d="M86.13,173.52c-6.09-10.64-8.63-25.82-9.43-43.23.8-17.41,3.34-32.59,9.43-43.23h24.77c2.18,0,4.1-1.62,4.73-4,3.02-11.38,11.55-43.11,11.55-43.11l-11.13-11.92h-20.69c-2.17,0-4.27.82-5.99,2.32l-17.91,15.68c-3.73,3.26-6.58,7.67-8.15,12.72-6.57,21.09-9.85,45.23-10.76,71.55.92,26.33,4.19,50.47,10.77,71.57,1.57,5.04,4.41,9.43,8.13,12.68l17.98,15.74c1.68,1.48,3.75,2.28,5.88,2.28h20.75l8.85-9.48c1.39-1.49,1.92-3.75,1.36-5.84-2.28-8.49-8.22-30.59-10.63-39.7-.63-2.39-2.56-4.02-4.75-4.02h-24.76Z"/>
  <path class="cls-2" d="M115.21,151.43l-.04-.1c-6.25-13.76-6.23-28.44.04-42.19h0"/>
  <path class="cls-2" d="M121.16,137.36l-.02-.03c-2.09-4.6-2.09-9.52.02-14.12h0"/>
  <path class="cls-2" d="M109.17,165.89l-.08-.17c-10.52-23.16-10.5-47.88.08-71.03"/>
  <path class="cls-3" d="M169.87,173.52c6.09-10.64,8.63-25.82,9.43-43.23-.8-17.41-3.34-32.59-9.43-43.23h-24.77c-2.18,0-4.1-1.62-4.73-4-3.02-11.38-11.55-43.11-11.55-43.11l11.13-11.92h20.69c2.17,0,4.27.82,5.99,2.32l17.91,15.68c3.73,3.26,6.58,7.67,8.15,12.72,6.57,21.09,9.85,45.23,10.76,71.55-.92,26.33-4.19,50.47-10.77,71.57-1.57,5.04-4.41,9.43-8.13,12.68l-17.98,15.74c-1.68,1.48-3.75,2.28-5.88,2.28h-20.75s-8.85-9.48-8.85-9.48c-1.39-1.49-1.92-3.75-1.36-5.84,2.28-8.49,8.22-30.59,10.63-39.7.63-2.39,2.56-4.02,4.75-4.02h24.76Z"/>
  <path class="cls-2" d="M140.79,151.43l.04-.1c6.25-13.76,6.23-28.44-.04-42.19h0"/>
  <path class="cls-2" d="M134.84,137.36l.02-.03c2.09-4.6,2.09-9.52-.02-14.12h0"/>
  <path class="cls-2" d="M146.83,165.89l.08-.17c10.52-23.16,10.5-47.88-.08-71.03h0"/>
  <g>
    <path class="cls-1" d="M116.06,28.02l-15.78,59.03,15.78-59.03Z"/>
    <line class="cls-1" x1="116.06" y1="232.56" x2="100.29" y2="173.52"/>
    <path class="cls-1" d="M139.94,28.02l15.78,59.03-15.78-59.03Z"/>
    <line class="cls-1" x1="139.94" y1="232.56" x2="155.71" y2="173.52"/>
  </g>
</svg>